<svg width="50" height="31" viewBox="0 0 50 31" fill="none" xmlns="http://www.w3.org/2000/svg">
<path d="M14.8076 0C16.3047 0 17.6713 0.131346 18.9074 0.391298C20.1434 0.65125 21.1989 1.07812 22.0794 1.6719C22.9599 2.26569 23.6432 3.05375 24.1293 4.03884C24.6154 5.02392 24.8571 6.23885 24.8571 7.68637C24.8571 9.24882 24.496 10.5513 23.7766 11.5939C23.0571 12.6364 21.9905 13.4901 20.5823 14.1551C22.5211 14.7051 23.9682 15.6683 24.9237 17.0419C25.8792 18.4156 26.357 20.0738 26.357 22.0138C26.357 23.5763 26.0487 24.9308 25.432 26.0746C24.8154 27.2184 23.9849 28.1514 22.9405 28.8738C21.8961 29.599 20.7073 30.1326 19.3712 30.4801C18.0268 30.8276 16.6408 31.0027 15.252 31H0V0H14.8076ZM13.9271 12.5461C15.1603 12.5461 16.1742 12.2561 16.9686 11.6787C17.763 11.0986 18.1602 10.16 18.1574 8.85753C18.1574 8.13513 18.0241 7.54135 17.7602 7.07891C17.4963 6.61646 17.1436 6.25253 16.7019 5.99258C16.2603 5.73263 15.7547 5.55203 15.1826 5.45079C14.5937 5.34954 13.9965 5.29755 13.3965 5.30029H6.92187V12.5516L13.9271 12.5461ZM14.3243 25.6997C14.977 25.7024 15.627 25.6367 16.2631 25.5054C16.8797 25.3741 17.4241 25.1579 17.8935 24.8542C18.3629 24.5504 18.7379 24.1372 19.0185 23.6173C19.2962 23.0974 19.4379 22.4298 19.4379 21.6198C19.4379 20.03 18.9824 18.8917 18.0713 18.2131C17.1602 17.5317 15.9547 17.1924 14.4576 17.1924H6.92187V25.7024L14.3243 25.6997ZM35.0621 25.0484C36.0009 25.946 37.3536 26.3947 39.1174 26.3947C40.3813 26.3947 41.4673 26.0828 42.3784 25.4616C43.2894 24.8405 43.8477 24.181 44.0533 23.486H49.5613C48.6808 26.1785 47.3281 28.1022 45.506 29.2597C43.6839 30.4171 41.4812 30.9972 38.8952 30.9972C37.1036 30.9972 35.4871 30.7154 34.0482 30.1517C32.6094 29.588 31.39 28.7835 30.3901 27.741C29.3902 26.6984 28.618 25.4562 28.0763 24.0086C27.5347 22.5611 27.2625 20.9686 27.2625 19.2337C27.2625 17.5563 27.5402 15.9939 28.0986 14.5464C28.6569 13.0988 29.4513 11.8483 30.479 10.7921C31.5067 9.73589 32.7344 8.90404 34.1594 8.29658C35.5843 7.68911 37.1648 7.38538 38.898 7.38538C40.8368 7.38538 42.5256 7.75478 43.9672 8.49359C45.406 9.2324 46.5893 10.223 47.5142 11.468C48.4392 12.713 49.1086 14.1304 49.5197 15.723C49.9308 17.3155 50.078 18.9792 49.9613 20.7168H33.5233C33.6094 22.7061 34.1232 24.1537 35.0621 25.0484ZM42.1367 13.2411C41.3868 12.4312 40.2479 12.0262 38.7202 12.0262C37.7203 12.0262 36.8898 12.1931 36.2315 12.5242C35.5704 12.8581 35.0426 13.2685 34.6454 13.761C34.2482 14.2536 33.9705 14.7735 33.8094 15.3235C33.6483 15.8735 33.5511 16.366 33.5233 16.7984H43.7033C43.4061 15.2387 42.8839 14.0511 42.1367 13.2411ZM32.4511 1.57339H45.1699V5.04854H32.4511V1.57339Z" fill="white"/>
</svg>
