<svg width="53" height="51" viewBox="0 0 53 51" fill="none" xmlns="http://www.w3.org/2000/svg">
<path d="M39.5332 0H13.1956C5.91939 0 0 5.92114 0 13.1995V37.3016C0 44.58 5.91939 50.5011 13.1956 50.5011H39.5332C46.8094 50.5011 52.7288 44.58 52.7288 37.3016V13.1995C52.7288 5.92114 46.8094 0 39.5332 0ZM4.655 13.1995C4.655 8.48945 8.48695 4.65633 13.1956 4.65633H39.5332C44.2419 4.65633 48.0738 8.48945 48.0738 13.1995V37.3016C48.0738 42.0117 44.2419 45.8448 39.5332 45.8448H13.1956C8.48695 45.8448 4.655 42.0117 4.655 37.3016V13.1995Z" fill="white"/>
<path d="M26.3645 37.5254C33.1308 37.5254 38.6387 32.0189 38.6387 25.2476C38.6387 18.4763 33.1338 12.9698 26.3645 12.9698C19.5952 12.9698 14.0903 18.4763 14.0903 25.2476C14.0903 32.0189 19.5952 37.5254 26.3645 37.5254ZM26.3645 17.6292C30.5662 17.6292 33.9837 21.0476 33.9837 25.2506C33.9837 29.4536 30.5662 32.872 26.3645 32.872C22.1628 32.872 18.7453 29.4536 18.7453 25.2506C18.7453 21.0476 22.1628 17.6292 26.3645 17.6292Z" fill="white"/>
<path d="M39.7749 14.9534C41.5969 14.9534 43.082 13.4709 43.082 11.6454C43.082 9.81983 41.5999 8.33728 39.7749 8.33728C37.9498 8.33728 36.4678 9.81983 36.4678 11.6454C36.4678 13.4709 37.9498 14.9534 39.7749 14.9534Z" fill="white"/>
</svg>
