<svg width="49" height="41" viewBox="0 0 49 41" fill="none" xmlns="http://www.w3.org/2000/svg">
<path d="M1.28051 18.4245C1.39244 18.3685 1.50442 18.3152 1.61355 18.2647C3.51077 17.3842 5.43318 16.5598 7.35279 15.7355C7.45632 15.7355 7.62977 15.6149 7.72771 15.5756C7.87602 15.5111 8.02435 15.4494 8.17266 15.385C8.45808 15.2616 8.74352 15.141 9.02614 15.0176C9.59699 14.7737 10.165 14.5298 10.7358 14.2858C11.8747 13.7979 13.0136 13.31 14.1525 12.8193C16.4303 11.8435 18.7109 10.8648 20.9887 9.88904C23.2665 8.91323 25.5471 7.93464 27.8248 6.95884C30.1026 5.98304 32.3832 5.00445 34.661 4.02865C36.9387 3.05284 39.2194 2.07425 41.4972 1.09845C42.0036 0.879736 42.5521 0.554461 43.095 0.459124C43.5511 0.377807 43.996 0.220806 44.4549 0.133882C45.3251 -0.031556 46.2849 -0.0988637 47.1188 0.262856C47.407 0.389037 47.6729 0.565655 47.8939 0.787173C48.9517 1.83588 48.8034 3.55759 48.5795 5.03251C47.0209 15.3121 45.4623 25.5944 43.9008 35.874C43.6882 37.2844 43.3971 38.8322 42.2862 39.7239C41.346 40.4782 40.0084 40.5623 38.8471 40.2426C37.6859 39.9202 36.6617 39.2444 35.6572 38.5799C31.4906 35.8151 27.3212 33.0503 23.1546 30.2855C22.164 29.6294 21.0615 28.7714 21.0727 27.5797C21.0783 26.8618 21.5064 26.2225 21.9429 25.6533C25.5638 20.9201 30.7882 17.6674 34.675 13.153C35.2234 12.5164 35.6544 11.3668 34.9016 10.9995C34.4539 10.7808 33.939 11.0779 33.5305 11.3612C28.3929 14.9363 23.2581 18.5142 18.1205 22.0894C16.4443 23.2558 14.687 24.4559 12.6667 24.742C10.859 24.9999 9.04015 24.4952 7.29123 23.9793C5.82494 23.5475 4.36141 23.1044 2.90351 22.6474C2.12839 22.4062 1.32809 22.1454 0.729258 21.5987C0.130431 21.0519 -0.213709 20.1322 0.147267 19.4032C0.373926 18.9461 0.813261 18.6573 1.27497 18.4217L1.28051 18.4245Z" fill="white"/>
</svg>
